<?xml version="1.0" encoding="UTF-8" standalone="no"?>
<svg
   xmlns:dc="http://purl.org/dc/elements/1.1/"
   xmlns:cc="http://creativecommons.org/ns#"
   xmlns:rdf="http://www.w3.org/1999/02/22-rdf-syntax-ns#"
   xmlns:svg="http://www.w3.org/2000/svg"
   xmlns="http://www.w3.org/2000/svg"
   viewBox="0 0 395.62668 117.50667"
   height="117.50667"
   width="395.62668"
   xml:space="preserve"
   id="svg2"
   version="1.1"><metadata
     id="metadata8"><rdf:RDF><cc:Work
         rdf:about=""><dc:format>image/svg+xml</dc:format><dc:type
           rdf:resource="http://purl.org/dc/dcmitype/StillImage" /></cc:Work></rdf:RDF></metadata><defs
     id="defs6" /><g
     transform="matrix(1.3333333,0,0,-1.3333333,0,117.50667)"
     id="g10"><g
       transform="scale(0.1)"
       id="g12"><path
         id="path14"
         style="fill:#2b4c75;fill-opacity:1;fill-rule:nonzero;stroke:none"
         d="m 1166.85,301.379 h 66.2 v -52.758 h -66.2 v 52.758" /><path
         id="path16"
         style="fill:#2b4c75;fill-opacity:1;fill-rule:nonzero;stroke:none"
         d="m 1167,231.379 h 66.44 L 1233.35,91.543 1167,69.4805 V 231.379" /><path
         id="path18"
         style="fill:#2b4c75;fill-opacity:1;fill-rule:nonzero;stroke:none"
         d="m 1538.48,302.078 -17.72,-49.82 h -136.42 v -49.113 h 144.57 l -21.35,-50.301 H 1384.34 V 88.7773 L 1312.77,68.6914 V 302.078 h 225.71" /><path
         id="path20"
         style="fill:#2b4c75;fill-opacity:1;fill-rule:nonzero;stroke:none"
         d="m 1604.58,299.719 69.94,-0.168 V 125.156 l 142.9,0.321 -21.34,-54.3364 -191.5,0.1602 V 299.719" /><path
         id="path22"
         style="fill:#2b4c75;fill-opacity:1;fill-rule:nonzero;stroke:none"
         d="m 1759.85,302.246 h 85.17 l 71.83,-87.793 68.8,87.793 h 85.34 L 1950.61,148.652 V 86.1836 l -69.03,-17.6484 v 79.6408 l -121.73,154.07" /><path
         id="path24"
         style="fill:#2b4c75;fill-opacity:1;fill-rule:nonzero;stroke:none"
         d="m 2370.09,302.078 -21.28,-53.308 h -71.97 V 86.3164 l -69.51,-17.625 V 248.77 h -90.24 v 53.308 h 253" /><path
         id="path26"
         style="fill:#2b4c75;fill-opacity:1;fill-rule:nonzero;stroke:none"
         d="m 2411.46,299.871 h 235.84 l -17.87,-48.406 h -147.28 v -44.524 h 155.1 l -15.26,-43.582 H 2482.15 V 118.438 H 2647.3 L 2629.43,70.9063 H 2411.46 V 299.871" /><path
         id="path28"
         style="fill:#2b4c75;fill-opacity:1;fill-rule:nonzero;stroke:none"
         d="m 2685.18,300.02 h 70.78 v -85.801 h 17.48 l 89.92,86.601 h 89.86 L 2838.77,189.309 2967.21,72.5 h -98.23 l -95.54,89.52 h -17.48 V 84.5898 L 2685.18,69.9609 V 300.02" /><path
         id="path30"
         style="fill:#2b4c75;fill-opacity:1;fill-rule:nonzero;stroke:none"
         d="m 1169.53,375.477 17.01,219.945 h 55.52 l -15.51,-203.734 -57.02,-16.211" /><path
         id="path32"
         style="fill:#2b4c75;fill-opacity:1;fill-rule:nonzero;stroke:none"
         d="m 1502.25,753.52 h 63.03 V 485.969 l 30.93,1.492 -17.94,-49.656 -12.99,-1.039 v -61.289 l -63.03,-23.805 v 82.566 l -114.11,-7.597 v 49.121 l 114.11,7.668 v 270.09" /><path
         id="path34"
         style="fill:#2b4c75;fill-opacity:1;fill-rule:nonzero;stroke:none"
         d="m 1369.15,595.422 14.47,-211.867 -54.49,24.355 -13.52,187.512 h 53.54" /><path
         id="path36"
         style="fill:#2b4c75;fill-opacity:1;fill-rule:nonzero;stroke:none"
         d="M 1308.65,617.168 V 384.57 l -60.58,-27.832 v 260.43 h -77.03 v 47.145 h 77.03 v 31.949 l -73,-6.567 v 50.145 l 208.55,17.793 -13.44,-49.192 -61.53,-7.117 v -37.011 h 74.97 l -23.01,-47.145 h -51.96" /><path
         id="path38"
         style="fill:#2b4c75;fill-opacity:1;fill-rule:nonzero;stroke:none"
         d="m 1434.17,599.938 50.52,-44.055 -46.97,-47.137 -50.54,44.125 46.99,47.067" /><path
         id="path40"
         style="fill:#2b4c75;fill-opacity:1;fill-rule:nonzero;stroke:none"
         d="m 1434.71,726.633 50.55,-44.059 -47.06,-46.656 -51.02,43.652 47.53,47.063" /><path
         id="path42"
         style="fill:#2b4c75;fill-opacity:1;fill-rule:nonzero;stroke:none"
         d="m 2170.08,747.977 49.58,-43.09 -46.57,-46.114 -49.52,43.102 46.51,46.102" /><path
         id="path44"
         style="fill:#2b4c75;fill-opacity:1;fill-rule:nonzero;stroke:none"
         d="m 2253.13,581.191 h 45.55 v 112.532 h -42.46 v 51.179 h 251.57 V 411.941 h 33.05 l -25.06,-48.64 -79.95,-0.481 0.46,330.903 h -66.6 V 581.191 h 56.56 l -25.47,-50.621 h -31.09 V 391.223 l -71.01,-30.93 V 530.57 h -45.55 v 50.621" /><path
         id="path46"
         style="fill:#2b4c75;fill-opacity:1;fill-rule:nonzero;stroke:none"
         d="m 2113.61,617.168 h 98.07 l 0.47,-187.996 44.53,7.594 -24.04,-57.254 -92.06,-24.278 v 211.239 h -26.97 v 50.695" /><path
         id="path48"
         style="fill:#2b4c75;fill-opacity:1;fill-rule:nonzero;stroke:none"
         d="m 1895.96,682.574 h 171.54 l -25.94,-51.168 h -140.61 l 172,-268.586 h -92.99 l -123,194.567 -118.07,-194.567 h -94.04 l 167.59,268.586 h -156.59 v 51.168 h 161.57 v 65.403 h 78.05 l 0.49,-65.403" /><path
         id="path50"
         style="fill:#2b4c75;fill-opacity:1;fill-rule:nonzero;stroke:none"
         d="m 2844.95,542.668 -26.43,26.336 h -73.62 l 87.55,-93.715 c 3.81,-4.398 7.99,-8.48 12.5,-12.184 z m 0,119.59 c -0.48,-0.481 -1.43,-0.949 -1.98,-1.512 -4.16,-2.199 -8.82,-3.242 -13.54,-3.004 h -94.5 l -9.49,-48.633 h 119.51 z m -93.57,81.137 -65.5,-337.079 h 159.07 v -48.953 h -242.18 l 68.57,335.024 h -83.98 v 50.226 z m 93.57,-134.446 v 53.141 c 3.76,3.711 7.03,7.883 9.72,12.426 l 43.1,68.398 h 66.51 l -63.27,-110.719 c -2.57,-4.34 -5.56,-8.422 -8.93,-12.175 -3.5,-3.864 -7.75,-6.954 -12.5,-9.098 -8.86,-2.039 -17.95,-2.895 -27.06,-2.527 z m 0,-146.32 v 79.566 l 26.08,-25.855 c 4.92,-5.485 10.86,-9.945 17.49,-13.133 7.47,-1.977 15.2,-2.859 22.94,-2.609 h 53.14 v -48.325 h -69.12 c -12.75,-0.691 -25.56,0.5 -37.97,3.555 -4.61,1.508 -8.9,3.93 -12.56,7.121 m 0,-57.09 119.65,-0.476 -26.58,-48.02 h -93.07 v 48.496" /><path
         id="path52"
         style="fill:#2b4c75;fill-opacity:1;fill-rule:nonzero;stroke:none"
         d="M 634.418,123.965 C 399.133,5.34375 157.914,-25.9063 94.0938,163.516 c -0.7383,1.914 -1.3438,3.855 -1.8282,5.847 -6.7929,29.903 -7.9023,63.282 0.9532,110.024 C 158.621,620.961 583.563,881.328 583.563,881.328 569.023,873.414 555.016,864.957 541.176,856.727 229.332,678.391 81.1914,488.891 27.8125,348.113 -11.7344,242.773 0.765625,174.52 6.46094,153.711 14.3984,124.785 29.1328,98.1641 49.3984,76.0547 144.309,-29.6094 307.387,-6.75781 434.402,34.7734 504.078,57.2656 571.121,87.1797 634.418,123.965" /><path
         id="path54"
         style="fill:#2b4c75;fill-opacity:1;fill-rule:nonzero;stroke:none"
         d="m 1013.41,718.246 c 9.5,2.535 3.48,1.422 26.17,6.875 -36.54,7.438 -258.767,-3.312 -428.494,-221.449 L 461.531,723.941 H 403.633 L 581.43,462.949 c -4.426,-6.726 -8.934,-13.437 -13.285,-20.488 l -2.926,-4.902 -195.828,286.699 H 311.5 L 539.434,390.977 c -4.422,-7.911 -9.246,-15.809 -14.477,-24.754 L 279.785,724.258 H 221.816 L 496.887,322.488 C 432.66,227.59 325.582,107.605 165.422,74.8633 c 0,0 275.629,-23.7422 438.863,195.7417 L 737.156,74.8633 h 57.895 L 632.758,313.477 c 2.613,4.433 5.226,8.867 7.918,13.437 1.66,3.098 3.793,6.965 6.16,11.152 L 826.602,74.8633 h 57.894 L 673.563,383.301 c 5.277,8.222 10.734,16.933 16.375,26.113 L 918.902,74.8633 h 57.891 L 718.484,452.273 c 71.969,104.243 181.598,235.614 294.926,265.973" /></g></g></svg>